PathFileType	4	(X/Y/Z)	D:\Share\Shared_Data\Ergonomics\Sit To Stand Pertubation\S3\Unperturbed.trc
DataRate	CameraRate	NumFrames	NumMarkers	Units	OrigDataRate	OrigDataStartFrame	OrigNumFrames	
100	100	9	18	m	100	2186	211
Frame#	Time	R_Thigh			R_ASIS			R_Pelvis			V_Sacral			L_Pelvis			L_ASIS			Clavical			R_Acromium			L_Acromium			Sternum			Torso			R_Thigh_Med			R_Thigh_Lat			R_Shank_Med			R_Shank_Lat			R_Shank			R_Heel			R_Toe			
		X1	Y1	Z1	X2	Y2	Z2	X3	Y3	Z3	X4	Y4	Z4	X5	Y5	Z5	X6	Y6	Z6	X7	Y7	Z7	X8	Y8	Z8	X9	Y9	Z9	X10	Y10	Z10	X11	Y11	Z11	X12	Y12	Z12	X13	Y13	Z13	X14	Y14	Z14	X15	Y15	Z15	X16	Y16	Z16	X17	Y17	Z17	X18	Y18	Z18	

2186	21.85	0.17185677	0.59098773	0.10944283	0.069857407	0.62377142	0.14025768	-0.032751316	0.67331042	0.19338235	-0.12276266	0.72316388	0.0020164299	-0.015566333	0.69138184	-0.20541855	0.079237236	0.62916699	-0.14981186	0.27804501	0.95381085	-0.0043602176	0.28191977	1.0406724	0.15120609	0.29447711	1.0270618	-0.1492953	0.25578717	0.87270923	0.0013521769	0.27341406	0.93653894	-0.064367767	0.34567419	0.46836734	0.092933403	0.32213934	0.44146588	0.20394954	0.25870596	0.10660329	0.094506729	0.23452924	0.097149689	0.17318245	0.25995349	0.26786145	0.20251566	0.17923732	0.05200544	0.12394185	0.39731223	0.056513905	0.13734875
2187	21.86	0.17613284	0.59209271	0.10978231	0.075002426	0.6261167	0.13998987	-0.026635559	0.67687567	0.19362752	-0.11667923	0.72752264	0.0019475565	-0.0095672007	0.69447687	-0.20566684	0.084022736	0.63078259	-0.14978082	0.28596313	0.95410773	-0.0046220422	0.29072336	1.0410878	0.15048868	0.3039079	1.0275322	-0.14890096	0.26344812	0.87356445	0.0012658721	0.28145837	0.93678424	-0.064259026	0.34864642	0.46817599	0.093334404	0.32492548	0.4405791	0.20360167	0.25912744	0.10636172	0.094265259	0.23476025	0.097060074	0.1729017	0.26156137	0.26749658	0.20212959	0.17932318	0.051363235	0.12331624	0.3975325	0.056153564	0.1373407
2188	21.87	0.18067867	0.59322156	0.1098746	0.080098145	0.62881488	0.1397426	-0.020684429	0.68057556	0.19383783	-0.11073766	0.73193335	0.001776881	-0.0036465158	0.69769147	-0.20590663	0.08880619	0.63276141	-0.14968181	0.29347781	0.95495575	-0.0049259386	0.29899536	1.041974	0.14983411	0.31260513	1.0285656	-0.14865994	0.27096536	0.87503876	0.001183966	0.28909052	0.93759338	-0.064206276	0.35173529	0.46771381	0.093323135	0.32784357	0.43972455	0.20305621	0.25951846	0.10612715	0.094030968	0.23492302	0.0969785	0.17263472	0.26316806	0.26721506	0.20161772	0.17939032	0.050677399	0.12266238	0.39772784	0.055853195	0.13732034
2189	21.88	0.18546831	0.59440802	0.10977261	0.085122246	0.63183063	0.13950983	-0.014923473	0.68440118	0.19399738	-0.10494609	0.73642297	0.0014543535	0.002175488	0.70104236	-0.20614639	0.093594879	0.63511029	-0.14952974	0.30059399	0.95639807	-0.0052695174	0.30672894	1.0433798	0.14925221	0.32058133	1.0302109	-0.14858151	0.27833429	0.87712756	0.0010963892	0.29631097	0.93901404	-0.064223	0.35490582	0.46703238	0.092982231	0.33083395	0.43890479	0.20236533	0.25987582	0.10590701	0.09382164	0.23502831	0.096907967	0.17238858	0.26474451	0.26701309	0.20102342	0.1794395	0.05005415	0.12207342	0.39789389	0.055619274	0.13729544
2190	21.89	0.19045938	0.59568329	0.10954668	0.090061401	0.63514001	0.13928517	-0.0093614254	0.68835999	0.19409251	-0.099301697	0.7410202	0.00092355323	0.0078806777	0.70455383	-0.20638861	0.098395348	0.63783868	-0.1493349	0.30732709	0.95846899	-0.005648334	0.31393115	1.0453461	0.14874774	0.32787256	1.0325032	-0.14866682	0.28550189	0.87980994	0.00098368108	0.30313306	0.94108118	-0.064320244	0.35811938	0.46620337	0.092417152	0.33383719	0.43812173	0.20158229	0.26019604	0.10570744	0.093647247	0.23510382	0.096855362	0.17216223	0.26627094	0.2668801	0.20039307	0.17947522	0.049573837	0.12161917	0.39802914	0.055450287	0.13727133
2191	21.9	0.19559116	0.59706982	0.10926913	0.094911102	0.63873077	0.13906355	-0.0039934442	0.69247363	0.19411095	-0.093792618	0.74575696	0.00014424303	0.013454591	0.70825391	-0.20663055	0.1032084	0.640953	-0.14910611	0.31369934	0.96119171	-0.0060562806	0.32061719	1.0479053	0.14832056	0.33452631	1.0354592	-0.14891367	0.29239252	0.88305603	0.00082559341	0.30957944	0.94381488	-0.064505936	0.36133432	0.46529736	0.091730553	0.33679953	0.43737766	0.20075676	0.26047446	0.10553439	0.093505074	0.23517998	0.096828163	0.17195132	0.26773697	0.26680191	0.19977084	0.17950313	0.04926265	0.1213222	0.39813464	0.055339024	0.1372514
2192	21.91	0.2007972	0.59858105	0.10900128	0.09967379	0.64260114	0.13884024	0.0011966128	0.6967735	0.19404315	-0.088400429	0.75066785	-0.00087535506	0.018888437	0.71216968	-0.20686562	0.10802468	0.64445282	-0.14885658	0.31973608	0.96457642	-0.0064864244	0.32680591	1.0510828	0.14796664	0.34059482	1.0390828	-0.14931456	0.29893268	0.88683453	0.00060809392	0.31567535	0.94722009	-0.064785515	0.36450638	0.46437234	0.091008171	0.33967569	0.43667575	0.19993071	0.26070505	0.10539579	0.093375763	0.23527669	0.0968283	0.17175484	0.26913803	0.26676367	0.19919354	0.17952719	0.049104912	0.12116885	0.39821295	0.055274143	0.1372375
2193	21.92	0.2060222	0.60022327	0.10878635	0.10435617	0.64675555	0.13860909	0.0062343016	0.70129309	0.19388593	-0.083103104	0.7557843	-0.0020664196	0.02418087	0.71632275	-0.20708495	0.11282484	0.64832684	-0.14860649	0.32546286	0.96861981	-0.0069319906	0.3325184	1.0548944	0.14767953	0.34613107	1.0433654	-0.14985312	0.30507465	0.89111676	0.00032887837	0.32144461	0.95128748	-0.065161812	0.36759122	0.46346817	0.090313423	0.34242838	0.43601968	0.19913681	0.26088263	0.10530092	0.093229561	0.23539772	0.09684967	0.17157837	0.27047037	0.26675159	0.19868703	0.17954843	0.049065952	0.12112868	0.39826767	0.055240322	0.13722987
2194	21.93	0.21122519	0.60199554	0.10864896	0.10896658	0.65120117	0.13836153	0.011152507	0.70606293	0.19364453	-0.077879318	0.76112646	-0.0033310416	0.029338152	0.72072766	-0.20728154	0.11758507	0.65255548	-0.14837901	0.33090289	0.97330615	-0.0073873196	0.33777808	1.0593474	0.14745042	0.35118536	1.0482898	-0.15050374	0.31081	0.89587897	-1.4817923e-06	0.32690961	0.95599475	-0.065632874	0.37054733	0.46260779	0.089687065	0.34502612	0.43541391	0.19839775	0.26100732	0.10525321	0.093050903	0.23553346	0.096882576	0.17142972	0.27172849	0.266755	0.19826505	0.17956456	0.049104324	0.12116486	0.3983024	0.055217148	0.13722725
